HIERARCHY
ROOT Hips
{
  OFFSET 0.000000 95.000000 0.000000
  CHANNELS 6 Xposition Yposition Zposition Zrotation Xrotation Yrotation
  JOINT Spine
  {
    OFFSET 0.000000 10.000000 0.000000
    CHANNELS 3 Zrotation Xrotation Yrotation
    JOINT Spine1
    {
      OFFSET 0.000000 12.000000 0.000000
      CHANNELS 3 Zrotation Xrotation Yrotation
      JOINT Spine2
      {
        OFFSET 0.000000 12.000000 0.000000
        CHANNELS 3 Zrotation Xrotation Yrotation
        JOINT Neck
        {
          OFFSET 0.000000 10.000000 0.000000
          CHANNELS 3 Zrotation Xrotation Yrotation
          JOINT Head
          {
            OFFSET 0.000000 8.000000 0.000000
            CHANNELS 3 Zrotation Xrotation Yrotation
            End Site
            {
              OFFSET 0.000000 10.000000 0.000000
            }
          }
        }
        JOINT LeftShoulder
        {
          OFFSET 6.000000 8.000000 0.000000
          CHANNELS 3 Zrotation Xrotation Yrotation
          JOINT LeftArm
          {
            OFFSET 12.000000 0.000000 0.000000
            CHANNELS 3 Zrotation Xrotation Yrotation
            JOINT LeftForeArm
            {
              OFFSET 24.000000 0.000000 0.000000
              CHANNELS 3 Zrotation Xrotation Yrotation
              JOINT LeftHand
              {
                OFFSET 22.000000 0.000000 0.000000
                CHANNELS 3 Zrotation Xrotation Yrotation
                JOINT LeftHandThumb1
                {
                  OFFSET 1.800000 -1.400000 0.500000
                  CHANNELS 3 Zrotation Xrotation Yrotation
                  JOINT LeftHandThumb2
                  {
                    OFFSET 2.400000 0.000000 0.000000
                    CHANNELS 3 Zrotation Xrotation Yrotation
                    JOINT LeftHandThumb3
                    {
                      OFFSET 1.900000 0.000000 0.000000
                      CHANNELS 3 Zrotation Xrotation Yrotation
                      End Site
                      {
                        OFFSET 1.600000 0.000000 0.000000
                      }
                    }
                  }
                }
                JOINT LeftHandIndex1
                {
                  OFFSET 6.600000 1.200000 0.300000
                  CHANNELS 3 Zrotation Xrotation Yrotation
                  JOINT LeftHandIndex2
                  {
                    OFFSET 2.000000 0.000000 0.000000
                    CHANNELS 3 Zrotation Xrotation Yrotation
                    JOINT LeftHandIndex3
                    {
                      OFFSET 1.200000 0.000000 0.000000
                      CHANNELS 3 Zrotation Xrotation Yrotation
                      End Site
                      {
                        OFFSET 1.000000 0.000000 0.000000
                      }
                    }
                  }
                }
                JOINT LeftHandMiddle1
                {
                  OFFSET 7.200000 0.000000 0.300000
                  CHANNELS 3 Zrotation Xrotation Yrotation
                  JOINT LeftHandMiddle2
                  {
                    OFFSET 3.000000 0.000000 0.000000
                    CHANNELS 3 Zrotation Xrotation Yrotation
                    JOINT LeftHandMiddle3
                    {
                      OFFSET 2.000000 0.000000 0.000000
                      CHANNELS 3 Zrotation Xrotation Yrotation
                      End Site
                      {
                        OFFSET 1.600000 0.000000 0.000000
                      }
                    }
                  }
                }
                JOINT LeftHandRing1
                {
                  OFFSET 7.100000 -1.000000 0.400000
                  CHANNELS 3 Zrotation Xrotation Yrotation
                  JOINT LeftHandRing2
                  {
                    OFFSET 2.600000 0.000000 0.000000
                    CHANNELS 3 Zrotation Xrotation Yrotation
                    JOINT LeftHandRing3
                    {
                      OFFSET 1.600000 0.000000 0.000000
                      CHANNELS 3 Zrotation Xrotation Yrotation
                      End Site
                      {
                        OFFSET 1.300000 0.000000 0.000000
                      }
                    }
                  }
                }
                JOINT LeftHandPinky1
                {
                  OFFSET 6.500000 -2.000000 0.500000
                  CHANNELS 3 Zrotation Xrotation Yrotation
                  JOINT LeftHandPinky2
                  {
                    OFFSET 1.900000 0.000000 0.000000
                    CHANNELS 3 Zrotation Xrotation Yrotation
                    JOINT LeftHandPinky3
                    {
                      OFFSET 1.400000 0.000000 0.000000
                      CHANNELS 3 Zrotation Xrotation Yrotation
                      End Site
                      {
                        OFFSET 1.300000 0.000000 0.000000
                      }
                    }
                  }
                }
              }
            }
          }
        }
        JOINT RightShoulder
        {
          OFFSET -6.000000 8.000000 0.000000
          CHANNELS 3 Zrotation Xrotation Yrotation
          JOINT RightArm
          {
            OFFSET -12.000000 0.000000 0.000000
            CHANNELS 3 Zrotation Xrotation Yrotation
            JOINT RightForeArm
            {
              OFFSET -24.000000 0.000000 0.000000
              CHANNELS 3 Zrotation Xrotation Yrotation
              JOINT RightHand
              {
                OFFSET -22.000000 0.000000 0.000000
                CHANNELS 3 Zrotation Xrotation Yrotation
                JOINT RightHandThumb1
                {
                  OFFSET -1.800000 -1.400000 0.500000
                  CHANNELS 3 Zrotation Xrotation Yrotation
                  JOINT RightHandThumb2
                  {
                    OFFSET -2.400000 0.000000 0.000000
                    CHANNELS 3 Zrotation Xrotation Yrotation
                    JOINT RightHandThumb3
                    {
                      OFFSET -1.900000 0.000000 0.000000
                      CHANNELS 3 Zrotation Xrotation Yrotation
                      End Site
                      {
                        OFFSET -1.600000 0.000000 0.000000
                      }
                    }
                  }
                }
                JOINT RightHandIndex1
                {
                  OFFSET -6.600000 1.200000 0.300000
                  CHANNELS 3 Zrotation Xrotation Yrotation
                  JOINT RightHandIndex2
                  {
                    OFFSET -2.000000 0.000000 0.000000
                    CHANNELS 3 Zrotation Xrotation Yrotation
                    JOINT RightHandIndex3
                    {
                      OFFSET -1.200000 0.000000 0.000000
                      CHANNELS 3 Zrotation Xrotation Yrotation
                      End Site
                      {
                        OFFSET -1.000000 0.000000 0.000000
                      }
                    }
                  }
                }
                JOINT RightHandMiddle1
                {
                  OFFSET -7.200000 0.000000 0.300000
                  CHANNELS 3 Zrotation Xrotation Yrotation
                  JOINT RightHandMiddle2
                  {
                    OFFSET -3.000000 0.000000 0.000000
                    CHANNELS 3 Zrotation Xrotation Yrotation
                    JOINT RightHandMiddle3
                    {
                      OFFSET -2.000000 0.000000 0.000000
                      CHANNELS 3 Zrotation Xrotation Yrotation
                      End Site
                      {
                        OFFSET -1.600000 0.000000 0.000000
                      }
                    }
                  }
                }
                JOINT RightHandRing1
                {
                  OFFSET -7.100000 -1.000000 0.400000
                  CHANNELS 3 Zrotation Xrotation Yrotation
                  JOINT RightHandRing2
                  {
                    OFFSET -2.600000 0.000000 0.000000
                    CHANNELS 3 Zrotation Xrotation Yrotation
                    JOINT RightHandRing3
                    {
                      OFFSET -1.600000 0.000000 0.000000
                      CHANNELS 3 Zrotation Xrotation Yrotation
                      End Site
                      {
                        OFFSET -1.300000 0.000000 0.000000
                      }
                    }
                  }
                }
                JOINT RightHandPinky1
                {
                  OFFSET -6.500000 -2.000000 0.500000
                  CHANNELS 3 Zrotation Xrotation Yrotation
                  JOINT RightHandPinky2
                  {
                    OFFSET -1.900000 0.000000 0.000000
                    CHANNELS 3 Zrotation Xrotation Yrotation
                    JOINT RightHandPinky3
                    {
                      OFFSET -1.400000 0.000000 0.000000
                      CHANNELS 3 Zrotation Xrotation Yrotation
                      End Site
                      {
                        OFFSET -1.300000 0.000000 0.000000
                      }
                    }
                  }
                }
              }
            }
          }
        }
      }
    }
  }
  JOINT LeftUpLeg
  {
    OFFSET 10.000000 -5.000000 0.000000
    CHANNELS 3 Zrotation Xrotation Yrotation
    JOINT LeftLeg
    {
      OFFSET 0.000000 -42.000000 0.000000
      CHANNELS 3 Zrotation Xrotation Yrotation
      JOINT LeftFoot
      {
        OFFSET 0.000000 -42.000000 4.000000
        CHANNELS 3 Zrotation Xrotation Yrotation
        End Site
        {
          OFFSET 0.000000 0.000000 12.000000
        }
      }
    }
  }
  JOINT RightUpLeg
  {
    OFFSET -10.000000 -5.000000 0.000000
    CHANNELS 3 Zrotation Xrotation Yrotation
    JOINT RightLeg
    {
      OFFSET 0.000000 -42.000000 0.000000
      CHANNELS 3 Zrotation Xrotation Yrotation
      JOINT RightFoot
      {
        OFFSET 0.000000 -42.000000 4.000000
        CHANNELS 3 Zrotation Xrotation Yrotation
        End Site
        {
          OFFSET 0.000000 0.000000 12.000000
        }
      }
    }
  }
}
MOTION
Frames: 9
Frame Time: 0.033333
0.0000 95.0000 0.0000 0.0000 0.0000 0.0000 0.0000 0.0000 0.0000 0.0000 0.0000 0.0000 0.0000 0.0000 0.0000 0.0000 0.0000 0.0000 0.0000 0.0000 0.0000 0.0000 0.0000 0.0000 -76.2778 8.3430 10.6137 -12.5684 10.1737 -13.5981 -171.8346 6.0100 176.9366 49.4414 -9.4974 5.8616 14.0156 0.0000 0.0000 3.0252 0.0000 0.0000 -8.7427 0.5062 -1.0939 6.3088 0.0000 0.0000 2.4918 0.0000 0.0000 3.9564 -0.0931 -2.0756 14.2139 0.0000 0.0000 5.8425 0.0000 0.0000 12.5718 -0.7779 -2.6016 23.7769 0.0000 0.0000 17.1844 0.0000 0.0000 19.4132 -1.7809 -2.7094 26.0377 0.0000 0.0000 31.5464 0.0000 0.0000 0.0000 0.0000 0.0000 79.8119 -25.3182 30.0667 176.0339 41.9740 276.5985 213.1807 37.6834 165.2712 -38.1193 0.0054 -25.0485 9.7217 0.0000 0.0000 13.8334 0.0000 0.0000 4.9345 0.0688 -1.1182 2.3024 0.0000 0.0000 6.8998 0.0000 0.0000 -23.8989 -13.1665 -52.4366 102.4366 0.0000 0.0000 23.4870 0.0000 0.0000 -35.3026 -17.3205 -74.4292 88.8996 0.0000 0.0000 25.1085 0.0000 0.0000 -35.1437 -3.5613 -81.2349 89.0854 0.0000 0.0000 23.3267 0.0000 0.0000 0.0000 0.0000 0.0000 0.0000 0.0000 0.0000 0.0000 0.0000 0.0000 0.0000 0.0000 0.0000 0.0000 0.0000 0.0000 0.0000 0.0000 0.0000
0.0000 95.0000 0.0000 0.0000 0.0000 0.0000 0.0000 0.0000 0.0000 0.0000 0.0000 0.0000 0.0000 0.0000 0.0000 0.0000 0.0000 0.0000 0.0000 0.0000 0.0000 0.0000 0.0000 0.0000 -76.1432 8.2897 10.5714 -12.4957 10.1920 -13.6761 -170.7176 4.9326 176.5211 49.9595 -9.8054 4.9897 15.1669 0.0000 0.0000 1.9734 0.0000 0.0000 -9.8395 0.6116 -1.8099 7.5181 0.0000 0.0000 3.8255 0.0000 0.0000 3.2559 -0.0575 -2.7491 14.9650 0.0000 0.0000 7.0756 0.0000 0.0000 11.7245 -0.7707 -3.1484 26.6904 0.0000 0.0000 22.9885 0.0000 0.0000 18.5373 -1.8558 -3.5634 27.1842 0.0000 0.0000 32.7637 0.0000 0.0000 0.0000 0.0000 0.0000 79.3868 -25.3068 30.2706 175.6559 42.6600 275.9858 212.9730 33.8888 164.3401 -37.6394 0.3680 -25.4143 10.1417 0.0000 0.0000 15.9979 0.0000 0.0000 5.1165 0.2607 0.2195 2.4581 0.0000 0.0000 5.9163 0.0000 0.0000 -21.8242 -13.9338 -59.9647 95.8794 0.0000 0.0000 24.9969 0.0000 0.0000 -31.3138 -14.6311 -77.4744 87.4885 0.0000 0.0000 28.8243 0.0000 0.0000 -32.6283 -0.9943 -84.6464 84.0173 0.0000 0.0000 27.6300 0.0000 0.0000 0.0000 0.0000 0.0000 0.0000 0.0000 0.0000 0.0000 0.0000 0.0000 0.0000 0.0000 0.0000 0.0000 0.0000 0.0000 0.0000 0.0000 0.0000
0.0000 95.0000 0.0000 0.0000 0.0000 0.0000 0.0000 0.0000 0.0000 0.0000 0.0000 0.0000 0.0000 0.0000 0.0000 0.0000 0.0000 0.0000 0.0000 0.0000 0.0000 0.0000 0.0000 0.0000 -76.2429 8.6824 11.0513 -11.9683 10.2565 -13.5913 -170.1394 4.3998 176.8359 49.8794 -9.5614 6.0471 15.1757 0.0000 0.0000 3.5771 0.0000 0.0000 -9.6144 0.5190 -0.9113 7.8168 0.0000 0.0000 3.9771 0.0000 0.0000 3.4713 -0.0830 -2.0341 15.3741 0.0000 0.0000 8.7007 0.0000 0.0000 10.9623 -0.7139 -2.3361 25.9646 0.0000 0.0000 23.2571 0.0000 0.0000 16.9575 -1.6108 -2.3532 24.3653 0.0000 0.0000 29.1065 0.0000 0.0000 0.0000 0.0000 0.0000 79.3568 -25.1372 30.0858 175.4725 44.9660 274.6151 217.8113 37.4905 170.4965 -40.7349 -2.1103 -22.3745 11.7728 0.0000 0.0000 20.6011 0.0000 0.0000 4.6546 0.1220 -0.6291 3.7965 0.0000 0.0000 2.9244 0.0000 0.0000 -32.0337 -14.4047 -42.7481 81.4599 0.0000 0.0000 18.3597 0.0000 0.0000 -46.0234 -26.1736 -73.6699 72.8349 0.0000 0.0000 23.1104 0.0000 0.0000 -43.6187 -15.7797 -100.8908 63.2637 0.0000 0.0000 29.5069 0.0000 0.0000 0.0000 0.0000 0.0000 0.0000 0.0000 0.0000 0.0000 0.0000 0.0000 0.0000 0.0000 0.0000 0.0000 0.0000 0.0000 0.0000 0.0000 0.0000
0.0000 95.0000 0.0000 0.0000 0.0000 0.0000 0.0000 0.0000 0.0000 0.0000 0.0000 0.0000 0.0000 0.0000 0.0000 0.0000 0.0000 0.0000 0.0000 0.0000 0.0000 0.0000 0.0000 0.0000 -75.9367 9.1167 11.6664 -12.8936 10.5026 -13.9592 -171.3354 4.5264 175.7718 49.2752 -9.5397 5.4900 14.3237 0.0000 0.0000 4.4997 0.0000 0.0000 -9.5853 0.5747 -1.5009 8.3081 0.0000 0.0000 3.9021 0.0000 0.0000 3.4790 -0.0610 -2.7631 17.4222 0.0000 0.0000 9.6894 0.0000 0.0000 12.2185 -0.7786 -2.9711 27.4780 0.0000 0.0000 21.8461 0.0000 0.0000 18.5839 -1.7149 -2.5125 26.5158 0.0000 0.0000 29.1399 0.0000 0.0000 0.0000 0.0000 0.0000 79.1501 -24.4696 29.4007 172.8163 48.1345 271.4602 225.5061 34.9341 171.5665 -40.0384 -1.5102 -23.2484 12.2071 0.0000 0.0000 0.9309 0.0000 0.0000 -3.3407 -3.2719 -14.5414 51.4375 0.0000 0.0000 13.4463 0.0000 0.0000 -29.2755 -13.0392 -42.4922 92.7885 0.0000 0.0000 21.0721 0.0000 0.0000 -37.6189 -13.1140 -52.3035 92.8439 0.0000 0.0000 22.7059 0.0000 0.0000 -41.5527 -8.2925 -67.6402 87.8086 0.0000 0.0000 27.2476 0.0000 0.0000 0.0000 0.0000 0.0000 0.0000 0.0000 0.0000 0.0000 0.0000 0.0000 0.0000 0.0000 0.0000 0.0000 0.0000 0.0000 0.0000 0.0000 0.0000
0.0000 95.0000 0.0000 0.0000 0.0000 0.0000 0.0000 0.0000 0.0000 0.0000 0.0000 0.0000 0.0000 0.0000 0.0000 0.0000 0.0000 0.0000 0.0000 0.0000 0.0000 0.0000 0.0000 0.0000 -75.6965 9.4467 12.1395 -13.5920 10.6736 -14.2088 -171.8075 4.2922 175.5483 49.2752 -9.5397 5.4900 14.3237 0.0000 0.0000 4.4997 0.0000 0.0000 -9.5853 0.5747 -1.5009 8.3081 0.0000 0.0000 3.9021 0.0000 0.0000 3.4790 -0.0610 -2.7631 17.4222 0.0000 0.0000 9.6894 0.0000 0.0000 12.2185 -0.7786 -2.9711 27.4780 0.0000 0.0000 21.8461 0.0000 0.0000 18.5839 -1.7149 -2.5125 26.5158 0.0000 0.0000 29.1399 0.0000 0.0000 0.0000 0.0000 0.0000 79.0368 -23.9624 28.8549 170.5990 50.3216 268.9277 226.3775 32.9420 170.5938 -40.0384 -1.5102 -23.2484 12.2071 0.0000 0.0000 0.9309 0.0000 0.0000 -3.3407 -3.2719 -14.5414 51.4375 0.0000 0.0000 13.4463 0.0000 0.0000 -29.2755 -13.0392 -42.4922 92.7885 0.0000 0.0000 21.0721 0.0000 0.0000 -37.6189 -13.1140 -52.3035 92.8439 0.0000 0.0000 22.7059 0.0000 0.0000 -41.5527 -8.2925 -67.6402 87.8086 0.0000 0.0000 27.2476 0.0000 0.0000 0.0000 0.0000 0.0000 0.0000 0.0000 0.0000 0.0000 0.0000 0.0000 0.0000 0.0000 0.0000 0.0000 0.0000 0.0000 0.0000 0.0000 0.0000
0.0000 95.0000 0.0000 0.0000 0.0000 0.0000 0.0000 0.0000 0.0000 0.0000 0.0000 0.0000 0.0000 0.0000 0.0000 0.0000 0.0000 0.0000 0.0000 0.0000 0.0000 0.0000 0.0000 0.0000 -75.6867 9.8024 12.5973 -13.4506 10.6273 -13.9857 -171.8199 5.5071 175.2825 50.0883 -9.5109 6.5189 12.2484 0.0000 0.0000 9.0655 0.0000 0.0000 -8.8042 0.5659 -1.6524 7.7414 0.0000 0.0000 2.1117 0.0000 0.0000 3.9275 -0.0671 -2.8165 14.2608 0.0000 0.0000 8.6712 0.0000 0.0000 12.1306 -0.7638 -2.6095 19.8113 0.0000 0.0000 16.1695 0.0000 0.0000 16.9175 -1.4143 -1.0644 21.4232 0.0000 0.0000 23.8860 0.0000 0.0000 0.0000 0.0000 0.0000 78.9483 -23.2411 28.0397 165.8698 56.1038 261.7966 224.8540 14.5622 163.0211 -38.2212 1.9095 -30.1469 18.1603 0.0000 0.0000 6.4366 0.0000 0.0000 -6.3159 -6.7922 -26.4097 60.9212 0.0000 0.0000 18.6865 0.0000 0.0000 -22.1265 -15.3892 -64.5173 74.3439 0.0000 0.0000 18.1709 0.0000 0.0000 -28.7196 -10.8876 -69.9455 75.1522 0.0000 0.0000 25.6301 0.0000 0.0000 -30.9852 0.5758 -81.8296 72.0183 0.0000 0.0000 31.0770 0.0000 0.0000 0.0000 0.0000 0.0000 0.0000 0.0000 0.0000 0.0000 0.0000 0.0000 0.0000 0.0000 0.0000 0.0000 0.0000 0.0000 0.0000 0.0000 0.0000
0.0000 95.0000 0.0000 0.0000 0.0000 0.0000 0.0000 0.0000 0.0000 0.0000 0.0000 0.0000 0.0000 0.0000 0.0000 0.0000 0.0000 0.0000 0.0000 0.0000 0.0000 0.0000 0.0000 0.0000 -75.7854 10.0333 12.8703 -13.0140 10.6428 -13.8860 -170.9617 3.4127 175.0502 51.5700 -9.9507 6.1063 13.8109 0.0000 0.0000 12.9668 0.0000 0.0000 -7.1665 0.3954 -0.6191 5.7648 0.0000 0.0000 0.4277 0.0000 0.0000 5.6031 -0.1478 -1.7513 7.6675 0.0000 0.0000 3.1450 0.0000 0.0000 12.7497 -0.7345 -0.8622 12.7583 0.0000 0.0000 8.7222 0.0000 0.0000 13.6637 -0.6107 2.2553 16.2788 0.0000 0.0000 14.9297 0.0000 0.0000 0.0000 0.0000 0.0000 78.8438 -22.3451 27.0199 154.6401 64.1432 246.3954 225.6105 -10.5115 166.0347 -36.8365 9.4171 -45.5210 41.9216 0.0000 0.0000 20.3388 0.0000 0.0000 -12.3858 -18.1519 -54.0093 39.9883 0.0000 0.0000 15.4862 0.0000 0.0000 -15.5667 -13.9461 -78.8725 49.4884 0.0000 0.0000 15.4436 0.0000 0.0000 -23.5947 -7.8566 -78.6810 50.7256 0.0000 0.0000 33.0747 0.0000 0.0000 -25.7475 6.0918 -83.6847 52.2237 0.0000 0.0000 39.1241 0.0000 0.0000 0.0000 0.0000 0.0000 0.0000 0.0000 0.0000 0.0000 0.0000 0.0000 0.0000 0.0000 0.0000 0.0000 0.0000 0.0000 0.0000 0.0000 0.0000
0.0000 95.0000 0.0000 0.0000 0.0000 0.0000 0.0000 0.0000 0.0000 0.0000 0.0000 0.0000 0.0000 0.0000 0.0000 0.0000 0.0000 0.0000 0.0000 0.0000 0.0000 0.0000 0.0000 0.0000 -75.9640 10.4854 13.4055 -12.8937 10.6445 -13.6693 -169.7667 0.6625 174.4599 51.2070 -9.7207 6.8201 13.4820 0.0000 0.0000 13.8008 0.0000 0.0000 -7.3538 0.2820 0.4205 5.8047 0.0000 0.0000 1.5079 0.0000 0.0000 5.4479 -0.1976 -0.6196 6.8415 0.0000 0.0000 2.3886 0.0000 0.0000 11.9896 -0.6692 -0.0335 10.7832 0.0000 0.0000 7.0475 0.0000 0.0000 14.3790 -0.6257 2.5497 16.6042 0.0000 0.0000 14.9731 0.0000 0.0000 0.0000 0.0000 0.0000 79.3821 -20.5209 24.6078 113.5409 73.4576 196.6185 162.3004 -19.5412 230.8189 -42.9663 -0.4199 -30.5193 35.4887 0.0000 0.0000 10.0121 0.0000 0.0000 -20.6924 -8.0959 -18.5768 10.5181 0.0000 0.0000 10.6150 0.0000 0.0000 -23.2229 -5.4514 -21.3179 29.1354 0.0000 0.0000 12.9118 0.0000 0.0000 -31.1922 -4.4559 -19.9508 26.9866 0.0000 0.0000 76.2564 0.0000 0.0000 -32.2792 -1.9603 -24.1094 33.0969 0.0000 0.0000 64.5933 0.0000 0.0000 0.0000 0.0000 0.0000 0.0000 0.0000 0.0000 0.0000 0.0000 0.0000 0.0000 0.0000 0.0000 0.0000 0.0000 0.0000 0.0000 0.0000 0.0000
0.0000 95.0000 0.0000 0.0000 0.0000 0.0000 0.0000 0.0000 0.0000 0.0000 0.0000 0.0000 0.0000 0.0000 0.0000 0.0000 0.0000 0.0000 0.0000 0.0000 0.0000 0.0000 0.0000 0.0000 -76.0953 10.8273 13.8087 -12.7974 10.6380 -13.4961 -169.8608 0.1850 173.9843 51.2070 -9.7207 6.8201 13.4820 0.0000 0.0000 13.8008 0.0000 0.0000 -7.3538 0.2820 0.4205 5.8047 0.0000 0.0000 1.5079 0.0000 0.0000 5.4479 -0.1976 -0.6196 6.8415 0.0000 0.0000 2.3886 0.0000 0.0000 11.9896 -0.6692 -0.0335 10.7832 0.0000 0.0000 7.0475 0.0000 0.0000 14.3790 -0.6257 2.5497 16.6042 0.0000 0.0000 14.9731 0.0000 0.0000 0.0000 0.0000 0.0000 79.7626 -19.1250 22.7977 76.5904 71.4954 153.1987 155.2243 -32.5829 232.4059 -42.9663 -0.4199 -30.5193 35.4887 0.0000 0.0000 10.0121 0.0000 0.0000 -20.6924 -8.0959 -18.5768 10.5181 0.0000 0.0000 10.6150 0.0000 0.0000 -23.2229 -5.4514 -21.3179 29.1354 0.0000 0.0000 12.9118 0.0000 0.0000 -31.1922 -4.4559 -19.9508 26.9866 0.0000 0.0000 76.2564 0.0000 0.0000 -32.2792 -1.9603 -24.1094 33.0969 0.0000 0.0000 64.5933 0.0000 0.0000 0.0000 0.0000 0.0000 0.0000 0.0000 0.0000 0.0000 0.0000 0.0000 0.0000 0.0000 0.0000 0.0000 0.0000 0.0000 0.0000 0.0000 0.0000
